<?xml version="1.0" encoding="UTF-8"?>
<svg xmlns="http://www.w3.org/2000/svg" xmlns:xlink="http://www.w3.org/1999/xlink" width="2000" height="2000" viewBox="0 0 2000 2000">
<path fill-rule="nonzero" fill="rgb(0%, 0%, 0%)" fill-opacity="1" d="M 615.148438 1015.472656 C 622.671875 1018.46875 630.894531 1020.679688 639.636719 1021.980469 C 695.292969 1029.925781 763.546875 994.378906 817.34375 928.878906 C 830.578125 912.738281 842.40625 895.671875 852.304688 878.230469 C 865.027344 855.960938 876.980469 830.828125 887.972656 803.621094 C 893.691406 789.289062 904.039062 787.210938 911.105469 798.800781 C 918.113281 810.519531 919.203125 831.480469 913.484375 845.671875 C 901.339844 875.890625 887.972656 903.75 873.832031 928.621094 C 864.515625 945.03125 853.585938 960.78125 841.890625 976.019531 C 841.695312 982.140625 841.441406 988.128906 841.441406 994.238281 C 841.441406 1065.472656 849.734375 1133.441406 866.054688 1196.59375 C 883.148438 1262.480469 908.40625 1319.128906 939.195312 1360.273438 C 940.285156 1361.699219 941.378906 1363.269531 942.472656 1364.695312 C 943.628906 1363.136719 944.722656 1361.699219 945.8125 1360.140625 C 976.535156 1318.992188 1001.789062 1262.480469 1018.890625 1196.59375 C 1028.910156 1157.664062 1035.980469 1116.253906 1039.898438 1073.414062 C 1041.570312 1055.316406 1050.058594 1043.335938 1059.058594 1046.59375 C 1067.988281 1049.976562 1073.898438 1067.296875 1072.289062 1085.394531 C 1068.441406 1127.976562 1061.691406 1169.121094 1052.5 1208.441406 C 1082.578125 1292.039062 1125.828125 1355.191406 1175.578125 1386.574219 C 1186.109375 1393.214844 1196.851562 1398.421875 1207.578125 1401.9375 C 1236.820312 1310.265625 1245.878906 1198.546875 1233.539062 1089.167969 C 1174.21875 1090.996094 1105.589844 1052.84375 1050.699219 986.171875 C 1035.789062 967.941406 1022.421875 948.679688 1011.109375 928.621094 C 975.441406 865.988281 945.746094 785.261719 927.433594 701.269531 C 917.214844 654.398438 910.851562 607.78125 908.40625 562.859375 C 907.441406 544.628906 913.9375 528.089844 923 526.140625 C 931.996094 524.191406 940.160156 537.339844 941.121094 555.699219 C 943.179688 593.851562 948.707031 633.691406 957.507812 674.320312 C 973.898438 749.578125 1000.570312 821.980469 1032.640625 878.359375 C 1042.539062 895.671875 1054.371094 912.738281 1067.601562 929.011719 C 1121.398438 994.378906 1189.460938 1030.058594 1245.308594 1021.980469 C 1254.050781 1020.679688 1262.269531 1018.46875 1269.789062 1015.472656 C 1281.359375 875.890625 1233.800781 697.5 1178.210938 599.839844 C 1143.761719 539.289062 1092.800781 494.5 1038.359375 477.050781 C 1027.109375 473.269531 1016.191406 470.929688 1004.941406 469.761719 C 963.488281 465.589844 921.453125 465.589844 880.003906 469.761719 C 869.140625 470.929688 857.25 473.53125 845.683594 477.308594 C 791.375 495.410156 740.730469 540.070312 706.734375 599.839844 C 651.140625 697.5 603.582031 875.890625 615.148438 1015.472656 Z M 1151.019531 1439.441406 C 1105.460938 1404.929688 1065.160156 1346.855469 1034.828125 1271.464844 C 1018.570312 1321.203125 997.9375 1364.570312 974.21875 1400.117188 C 991.378906 1505.585938 1021.839844 1598.035156 1061.050781 1661.96875 C 1066.769531 1671.347656 1072.550781 1679.941406 1078.339844 1687.75 C 1112.460938 1625.378906 1137.71875 1538.65625 1151.019531 1439.441406 Z M 832.574219 1207.925781 C 818.238281 1146.59375 810.398438 1081.359375 809.113281 1013.519531 C 760.589844 1061.824219 704.871094 1089.695312 655.253906 1089.695312 C 653.96875 1089.695312 652.683594 1089.433594 651.335938 1089.433594 C 639.058594 1198.679688 648.121094 1310.398438 677.363281 1401.9375 C 688.160156 1398.289062 698.957031 1393.082031 709.496094 1386.441406 C 759.304688 1355.066406 802.558594 1291.78125 832.574219 1207.925781 Z M 618.300781 1084.09375 C 610.78125 1081.75 603.648438 1078.886719 596.898438 1075.242188 C 591.242188 1071.980469 586.808594 1063 585.328125 1051.277344 C 563.285156 878.101562 620.359375 663.378906 685.203125 549.449219 C 723.636719 481.871094 780.191406 431.609375 840.410156 411.421875 C 853.203125 407.25 866.3125 404.519531 878.332031 403.21875 C 920.878906 398.921875 964.066406 398.921875 1006.609375 403.21875 C 1019.078125 404.519531 1031.101562 407.128906 1043.570312 411.160156 C 1103.851562 430.558594 1160.789062 480.960938 1199.738281 549.449219 C 1264.589844 663.378906 1321.660156 878.101562 1299.609375 1051.277344 C 1298.128906 1063 1293.699219 1071.980469 1288.039062 1075.242188 C 1281.300781 1078.886719 1274.160156 1081.75 1266.640625 1084.09375 C 1280.140625 1215.609375 1266.898438 1349.851562 1228.71875 1457.40625 C 1225.640625 1466.136719 1220.628906 1471.34375 1215.359375 1471.34375 C 1214.710938 1471.34375 1214.070312 1471.210938 1213.371094 1471.082031 C 1203.019531 1468.472656 1192.738281 1464.175781 1182.449219 1459.101562 C 1166.128906 1579.15625 1133.859375 1683.453125 1090.160156 1754.8125 C 1087.140625 1759.761719 1083.539062 1762.230469 1079.808594 1762.230469 C 1076.921875 1762.230469 1074.089844 1760.796875 1071.460938 1757.675781 C 1061.109375 1745.175781 1050.640625 1730.464844 1040.421875 1713.925781 C 998.191406 1645.042969 965.03125 1547.382812 945.425781 1436.179688 C 944.460938 1436.574219 943.5 1436.964844 942.472656 1436.964844 C 939.644531 1436.964844 936.816406 1435.53125 934.246094 1432.535156 C 929.746094 1427.199219 925.378906 1421.726562 921.070312 1416.003906 C 892.792969 1378.113281 868.753906 1328.496094 850.117188 1271.464844 C 819.847656 1346.730469 779.613281 1404.671875 734.113281 1439.308594 C 747.480469 1538.65625 772.929688 1625.511719 807.1875 1687.75 C 812.84375 1680.066406 818.433594 1671.738281 823.960938 1662.75 C 851.207031 1618.476562 874.667969 1559.492188 891.957031 1492.304688 C 896.195312 1476.03125 906.160156 1469.648438 914.191406 1478.109375 C 922.226562 1486.703125 925.378906 1506.890625 921.199219 1523.160156 C 903.71875 1591.007812 880.261719 1650.902344 853.394531 1698.691406 C 869.332031 1793.355469 900.441406 1873.695312 942.472656 1927.730469 C 970.039062 1892.183594 993.503906 1844.265625 1010.789062 1788.273438 C 1015.609375 1772.644531 1025.769531 1767.828125 1033.480469 1777.59375 C 1041.121094 1787.363281 1043.5 1807.933594 1038.679688 1823.5625 C 1016.898438 1894.261719 986.429688 1953.773438 950.695312 1995.570312 C 948.125 1998.566406 945.300781 2000 942.472656 2000 C 939.644531 2000 936.816406 1998.566406 934.246094 1995.570312 C 884.4375 1937.492188 846.710938 1848.5625 826.015625 1742.179688 C 822.03125 1747.519531 818.113281 1752.859375 814.128906 1757.675781 C 811.554688 1760.796875 808.664062 1762.363281 805.769531 1762.363281 C 802.109375 1762.363281 798.445312 1759.886719 795.488281 1754.9375 C 751.59375 1683.585938 719.136719 1579.285156 702.683594 1458.96875 C 692.402344 1464.050781 681.992188 1468.472656 671.578125 1471.082031 C 670.871094 1471.210938 670.230469 1471.34375 669.585938 1471.34375 C 664.316406 1471.34375 659.300781 1466.136719 656.21875 1457.40625 C 618.042969 1349.851562 604.804688 1215.609375 618.300781 1084.09375 Z M 989.128906 401.699219 C 987.265625 416.941406 974.21875 427.089844 974.21875 427.089844 C 944.160156 427.089844 916.441406 426.960938 907.382812 427.089844 L 907.316406 427.089844 C 898.253906 427.089844 890.925781 412.25 890.863281 393.890625 C 890.671875 310.941406 887.777344 143.96875 877.429688 76.519531 C 876.015625 67.410156 876.597656 57.378906 879.101562 49.179688 C 881.609375 40.96875 885.722656 35.371094 890.414062 33.808594 L 989.128906 0.480469 C 993.949219 -1.21875 998.898438 1.648438 1002.628906 8.160156 C 1006.289062 14.671875 1008.410156 24.179688 1008.28125 34.070312 C 1007.191406 132.378906 999.222656 318.230469 989.128906 401.699219 "/>
</svg>
